<svg width="734" height="640" viewBox="0 0 734 640" fill="none" xmlns="http://www.w3.org/2000/svg" xmlns:xlink="http://www.w3.org/1999/xlink">
<rect width="734" height="640" fill="url(#pattern0)"/>
<defs>
<pattern id="pattern0" patternContentUnits="objectBoundingBox" width="1" height="1">
<use xlink:href="#image0" transform="translate(-0.00408719) scale(0.0013624 0.0015625)"/>
</pattern>
<image id="image0" width="740" height="640" xlink:href="img/home.png/">
</defs>
<path d="M222 537L442.8 545L512 531.3V553L443.5 572.7L222 561.7V537Z" fill="#3595F6" fill-opacity="0.75"/>
<path d="M223 537V510L443.3 514.3L513 508V531L443.3 545L223 537Z" fill="#3595F6" fill-opacity="0.75"/>
<path d="M223 510V485H444H513V508L445 515L223 510Z" fill="#3595F6" fill-opacity="0.75"/>
<path d="M223 486V461L444.3 457.3L512 464V486H444" fill="#3595F6" fill-opacity="0.75"/>
<path d="M223 461.5V433L444 429L513 441L512.5 464L444 457L223 461.5Z" fill="#3595F6" fill-opacity="0.75"/>
<path d="M222 433V409.3L443 397L514 419V441.3L443 429L222 433Z" fill="#3595F6" fill-opacity="0.75"/>
<path d="M222 411V386L443 369L514 398.3V419L443.7 397.3L222 411Z" fill="#3595F6" fill-opacity="0.75"/>
<path d="M222 386V360L444.5 339L514 377.3V398L442 369.5L222 386Z" fill="#3595F6" fill-opacity="0.75"/>
<path d="M222 360V335L445 311.3L514 353.5V377L444.7 339L222 360Z" fill="#3595F6" fill-opacity="0.75"/>
<path d="M222 335V311L444.5 282.3L514 333.3V354L443.7 311.7L222 335Z" fill="#3595F6" fill-opacity="0.75"/>
<path d="M222 311V286L444 254L514 312.5V333L444 282.3L222 311Z" fill="#3595F6" fill-opacity="0.75"/>
<path d="M222 286V262L444.3 227L513 291V312L444.3 253.7L222 286Z" fill="#3595F6" fill-opacity="0.75"/>
<path d="M222 262V235.5L445 195.5L513 269.3V290.5L444 227L222 262Z" fill="#3595F6" fill-opacity="0.75"/>
<path d="M222 236V211L442.8 167.3L513 246.3V269L444 195.7L222 236Z" fill="#3595F6" fill-opacity="0.75"/>
<path d="M222 211V186.5L443.5 138.5L513 224V247L442.3 167.7L222 211Z" fill="#3595F6" fill-opacity="0.75"/>
<path d="M222 187V162L443.3 110L513 202.3V225L443.3 138.7L222 187Z" fill="#3595F6" fill-opacity="0.75"/>
<path d="M222 162V136L444 79.3L513 181V202L444.5 111.5L222 162Z" fill="#3595F6" fill-opacity="0.75"/>
</svg>
